<svg width="1em" height="1em" viewBox="0 0 200 200" fill="none" xmlns="http://www.w3.org/2000/svg">
<path d="M71.7969 141.75C66.0781 141.75 61.5938 140.781 58.3438 138.844C55.125 136.875 52.8438 133.922 51.5 129.984C50.1875 126.047 49.5312 121.141 49.5312 115.266V92.9531C49.5312 87.2344 49.7656 82.1875 50.2344 77.8125C50.7344 73.4375 51.75 69.7656 53.2812 66.7969C54.8125 63.8281 57.0938 61.5781 60.125 60.0469C63.1562 58.5156 67.2031 57.75 72.2656 57.75C75.7344 57.75 78.9688 58.3594 81.9688 59.5781C84.9688 60.7656 87.3906 62.5625 89.2344 64.9688C91.0781 67.3438 92 70.3281 92 73.9219V82.8281H76.1094V81.1406C76.1094 79.7656 76.0312 78.3906 75.875 77.0156C75.75 75.6406 75.4062 74.5 74.8438 73.5938C74.2812 72.6875 73.3281 72.2344 71.9844 72.2344C70.1406 72.2344 68.8594 72.75 68.1406 73.7812C67.4219 74.7812 67.0625 76.2344 67.0625 78.1406V94.6875C67.8438 93.2188 69.0156 92.0469 70.5781 91.1719C72.1406 90.2656 74.0469 89.8125 76.2969 89.8125C80.8594 89.8125 84.3594 90.7344 86.7969 92.5781C89.2656 94.3906 90.9688 97.1094 91.9062 100.734C92.8438 104.359 93.3125 108.891 93.3125 114.328C93.3125 119.828 92.6406 124.641 91.2969 128.766C89.9531 132.859 87.7031 136.047 84.5469 138.328C81.4219 140.609 77.1719 141.75 71.7969 141.75ZM71.1875 126.562C73.125 126.562 74.2812 125.75 74.6562 124.125C75.0312 122.469 75.2188 120.359 75.2188 117.797V111.141C75.2188 106.641 73.9531 104.391 71.4219 104.391C68.5156 104.391 67.0625 106.344 67.0625 110.25V120.469C67.0625 124.531 68.4375 126.562 71.1875 126.562ZM129.35 141.047V127.969H104.881V115.078L120.491 58.4531H146.178V114.188H150.584V127.969H146.178V141.047H129.35ZM119.6 114.188H129.35V72.6094L119.6 114.188Z" fill="currentColor"/>
<rect width="200" height="200" stroke="currentColor" stroke-width="25"/>
</svg>
