<svg width="1em" height="1em" viewBox="0 0 200 200" fill="none" xmlns="http://www.w3.org/2000/svg">
<path d="M81.5312 127.5C77.7188 127.5 74.7292 126.854 72.5625 125.562C70.4167 124.25 68.8958 122.281 68 119.656C67.125 117.031 66.6875 113.76 66.6875 109.844V94.9688C66.6875 91.1562 66.8438 87.7917 67.1562 84.875C67.4896 81.9583 68.1667 79.5104 69.1875 77.5312C70.2083 75.5521 71.7292 74.0521 73.75 73.0312C75.7708 72.0104 78.4688 71.5 81.8438 71.5C84.1562 71.5 86.3125 71.9062 88.3125 72.7188C90.3125 73.5104 91.9271 74.7083 93.1562 76.3125C94.3854 77.8958 95 79.8854 95 82.2812V88.2188H84.4062V87.0938C84.4062 86.1771 84.3542 85.2604 84.25 84.3438C84.1667 83.4271 83.9375 82.6667 83.5625 82.0625C83.1875 81.4583 82.5521 81.1562 81.6562 81.1562C80.4271 81.1562 79.5729 81.5 79.0938 82.1875C78.6146 82.8542 78.375 83.8229 78.375 85.0938V96.125C78.8958 95.1458 79.6771 94.3646 80.7188 93.7812C81.7604 93.1771 83.0312 92.875 84.5312 92.875C87.5729 92.875 89.9062 93.4896 91.5312 94.7188C93.1771 95.9271 94.3125 97.7396 94.9375 100.156C95.5625 102.573 95.875 105.594 95.875 109.219C95.875 112.885 95.4271 116.094 94.5312 118.844C93.6354 121.573 92.1354 123.698 90.0312 125.219C87.9479 126.74 85.1146 127.5 81.5312 127.5ZM81.125 117.375C82.4167 117.375 83.1875 116.833 83.4375 115.75C83.6875 114.646 83.8125 113.24 83.8125 111.531V107.094C83.8125 104.094 82.9688 102.594 81.2812 102.594C79.3438 102.594 78.375 103.896 78.375 106.5V113.312C78.375 116.021 79.2917 117.375 81.125 117.375ZM119.9 127.031V118.312H103.588V109.719L113.994 71.9688H131.119V109.125H134.056V118.312H131.119V127.031H119.9ZM113.4 109.125H119.9V81.4062L113.4 109.125Z" fill="currentColor"/>
<rect width="200" height="200" stroke="currentColor" stroke-width="25"/>
</svg>
