<svg width="1em" height="1em" viewBox="0 0 200 200" fill="none" xmlns="http://www.w3.org/2000/svg">
<path d="M125.641 140V112.859L112.469 57.5H128.828L133.422 85.4375L138.016 57.5H154.328L141.203 112.859V140H125.641Z" fill="currentColor"/>
<path d="M66.9375 140.75C63.2188 140.75 59.8281 140.031 56.7656 138.594C53.7031 137.156 51.2656 135.031 49.4531 132.219C47.6719 129.375 46.7812 125.891 46.7812 121.766V101.094H63.0938V120.781C63.0938 122.219 63.375 123.375 63.9375 124.25C64.5312 125.125 65.4688 125.562 66.75 125.562C69.2188 125.562 70.4531 124.047 70.4531 121.016V57.5H87.0938V119.375C87.0938 123.75 86.2344 127.547 84.5156 130.766C82.7969 133.953 80.4219 136.422 77.3906 138.172C74.3594 139.891 70.875 140.75 66.9375 140.75Z" fill="currentColor"/>
<rect width="200" height="200" stroke="currentColor" stroke-width="25"/>
</svg>
