<svg width="600" height="200" viewBox="0 0 600 200" fill="none" xmlns="http://www.w3.org/2000/svg">
<rect width="600" height="200" fill="#55B5A6"/>
<g clip-path="url(#clip0_7_36)">
<path d="M179.738 72.4806C177.576 66.5256 174.027 60.8664 169.553 56.077C165.074 51.2915 159.671 47.3645 153.691 45.0024C149.954 43.5277 146.293 42.7922 142.825 42.7904C141.385 42.7904 139.979 42.9208 138.616 43.1784V50.5062C139.887 50.1262 141.285 49.9186 142.825 49.9186C145.28 49.9186 148.064 50.441 151.075 51.6277C154.282 52.8951 157.408 54.7789 160.27 57.1199C164.564 60.6284 168.266 65.1605 170.843 70.0015C172.134 72.4192 173.147 74.9136 173.831 77.387C174.035 78.1187 174.208 78.8504 174.349 79.5802L107.072 116.032C106.754 114.776 106.377 113.526 105.928 112.287C103.823 106.488 100.351 100.948 95.9767 96.264C91.5983 91.5822 86.3134 87.7493 80.5178 85.464C79.0318 84.8762 77.5604 84.4173 76.1164 84.0775L93.8142 74.4856V66.3797L59.4212 85.0146L59.3521 85.0626C56.4216 86.8273 54.0327 89.416 52.435 92.575C50.8296 95.734 50 99.446 50 103.523V143.358L105.909 165.406L107.372 164.615L182 124.18V84.646C182 80.5653 181.178 76.4519 179.738 72.4806ZM103.224 156.683L57.1283 138.506V103.523C57.1283 100.404 57.7581 97.8349 58.7911 95.7995C59.8206 93.7813 61.2301 92.27 62.9966 91.1849L68.2621 88.3314C68.85 88.2719 69.445 88.2334 70.0632 88.2314C72.6751 88.2314 75.5977 88.7903 78.7203 90.0211C82.05 91.3329 85.2687 93.2801 88.2106 95.6842C92.6234 99.2926 96.4104 103.926 99.0604 108.902C101.718 113.874 103.228 119.174 103.224 124.071V156.683H103.224ZM174.876 119.934L108.125 156.103V124.07V122.509H108.082C108.056 122.046 108.021 121.58 107.979 121.117L136.576 105.62V114.699C136.576 116.462 137.529 118.087 139.065 118.955C140.601 119.823 142.487 119.79 143.996 118.88L144.488 118.584C147.084 117.015 148.67 114.202 148.67 111.168V99.0659L174.875 84.8687V119.934H174.876Z" fill="white"/>
<path d="M123.476 58.4141V50.3084L108.958 58.1722V66.2799L123.476 58.4141Z" fill="white"/>
<path d="M101.384 81.0665C103.355 81.0665 104.948 79.4706 104.948 77.5025V56.1675C104.945 54.6925 105.755 53.3426 107.049 52.6419L127.151 41.7498V41.746L127.255 41.7228C127.297 41.7228 127.332 41.7305 127.37 41.7555H127.374C127.439 41.7901 127.481 41.8669 127.481 41.9458V62.7701C127.481 64.7364 129.075 66.3302 131.046 66.3302C133.012 66.3302 134.606 64.7364 134.606 62.7701V41.9455C134.606 39.355 133.242 36.9566 131.019 35.6296C129.863 34.9402 128.561 34.5945 127.255 34.5945C126.057 34.5945 124.847 34.8902 123.752 35.4837H123.756L103.654 46.374C100.059 48.3248 97.8237 52.0812 97.8237 56.1675V77.5025C97.824 79.4706 99.418 81.0665 101.384 81.0665Z" fill="white"/>
</g>
<path d="M218.856 134V83.696H231.72V134H218.856ZM218.856 76.688V63.92H231.72V76.688H218.856ZM295.549 77.456H273.757V134H260.605V77.456H238.813V65.84H295.549V77.456ZM316.526 134.96C312.43 134.96 308.75 134.288 305.486 132.944C302.222 131.536 299.438 129.616 297.134 127.184C294.894 124.752 293.166 121.968 291.95 118.832C290.734 115.696 290.126 112.4 290.126 108.944C290.126 105.424 290.734 102.096 291.95 98.96C293.166 95.824 294.894 93.04 297.134 90.608C299.438 88.176 302.222 86.288 305.486 84.944C308.75 83.536 312.43 82.832 316.526 82.832C320.622 82.832 324.27 83.536 327.47 84.944C330.734 86.288 333.518 88.176 335.822 90.608C338.126 93.04 339.854 95.824 341.006 98.96C342.222 102.096 342.83 105.424 342.83 108.944C342.83 112.4 342.222 115.696 341.006 118.832C339.854 121.968 338.126 124.752 335.822 127.184C333.582 129.616 330.83 131.536 327.566 132.944C324.302 134.288 320.622 134.96 316.526 134.96ZM303.374 108.944C303.374 111.888 303.95 114.512 305.102 116.816C306.254 119.056 307.822 120.816 309.806 122.096C311.79 123.376 314.03 124.016 316.526 124.016C318.958 124.016 321.166 123.376 323.15 122.096C325.134 120.752 326.702 118.96 327.854 116.72C329.07 114.416 329.678 111.792 329.678 108.848C329.678 105.968 329.07 103.376 327.854 101.072C326.702 98.768 325.134 96.976 323.15 95.696C321.166 94.416 318.958 93.776 316.526 93.776C314.03 93.776 311.79 94.448 309.806 95.792C307.822 97.072 306.254 98.864 305.102 101.168C303.95 103.408 303.374 106 303.374 108.944ZM374.744 134.96C370.648 134.96 366.968 134.288 363.704 132.944C360.44 131.536 357.656 129.616 355.352 127.184C353.112 124.752 351.384 121.968 350.168 118.832C348.952 115.696 348.344 112.4 348.344 108.944C348.344 105.424 348.952 102.096 350.168 98.96C351.384 95.824 353.112 93.04 355.352 90.608C357.656 88.176 360.44 86.288 363.704 84.944C366.968 83.536 370.648 82.832 374.744 82.832C378.84 82.832 382.488 83.536 385.688 84.944C388.952 86.288 391.736 88.176 394.04 90.608C396.344 93.04 398.072 95.824 399.224 98.96C400.44 102.096 401.048 105.424 401.048 108.944C401.048 112.4 400.44 115.696 399.224 118.832C398.072 121.968 396.344 124.752 394.04 127.184C391.8 129.616 389.048 131.536 385.784 132.944C382.52 134.288 378.84 134.96 374.744 134.96ZM361.592 108.944C361.592 111.888 362.168 114.512 363.32 116.816C364.472 119.056 366.04 120.816 368.024 122.096C370.008 123.376 372.248 124.016 374.744 124.016C377.176 124.016 379.384 123.376 381.368 122.096C383.352 120.752 384.92 118.96 386.072 116.72C387.288 114.416 387.896 111.792 387.896 108.848C387.896 105.968 387.288 103.376 386.072 101.072C384.92 98.768 383.352 96.976 381.368 95.696C379.384 94.416 377.176 93.776 374.744 93.776C372.248 93.776 370.008 94.448 368.024 95.792C366.04 97.072 364.472 98.864 363.32 101.168C362.168 103.408 361.592 106 361.592 108.944ZM409.635 63.92H422.499V117.872C422.499 120.176 422.883 121.744 423.651 122.576C424.419 123.344 425.475 123.728 426.819 123.728C427.843 123.728 428.899 123.6 429.987 123.344C431.075 123.088 432.035 122.768 432.867 122.384L434.595 132.176C432.867 133.008 430.851 133.648 428.547 134.096C426.243 134.544 424.163 134.768 422.307 134.768C418.275 134.768 415.139 133.712 412.899 131.6C410.723 129.424 409.635 126.352 409.635 122.384V63.92ZM474.568 134L459.88 112.304L453.064 119.024V134H440.2V63.92H453.064V106.352L473.32 83.792H486.952L468.232 105.104L488.296 134H474.568ZM493.731 134V83.696H506.595V134H493.731ZM493.731 76.688V63.92H506.595V76.688H493.731ZM548.344 131.408C547.256 131.856 545.944 132.368 544.408 132.944C542.872 133.52 541.208 133.968 539.416 134.288C537.688 134.672 535.928 134.864 534.136 134.864C531.768 134.864 529.592 134.448 527.608 133.616C525.624 132.784 524.024 131.472 522.808 129.68C521.656 127.824 521.08 125.424 521.08 122.48V93.584H514.456V83.696H521.08V67.376H533.944V83.696H544.504V93.584H533.944V118.16C534.008 119.888 534.488 121.136 535.384 121.904C536.28 122.672 537.4 123.056 538.744 123.056C540.088 123.056 541.4 122.832 542.68 122.384C543.96 121.936 544.984 121.552 545.752 121.232L548.344 131.408Z" fill="white"/>
<defs>
<clipPath id="clip0_7_36">
<rect width="132" height="132" fill="white" transform="translate(50 34)"/>
</clipPath>
</defs>
</svg>
