<svg width="69" height="16" viewBox="0 0 69 16" fill="none" xmlns="http://www.w3.org/2000/svg">
<path d="M0.22 15V4.52H2.9V15H0.22ZM0.22 3.06V0.4H2.9V3.06H0.22ZM16.1977 3.22H11.6577V15H8.91766V3.22H4.37766V0.799999H16.1977V3.22ZM20.5678 15.2C19.7145 15.2 18.9478 15.06 18.2678 14.78C17.5878 14.4867 17.0078 14.0867 16.5278 13.58C16.0611 13.0733 15.7011 12.4933 15.4478 11.84C15.1945 11.1867 15.0678 10.5 15.0678 9.78C15.0678 9.04667 15.1945 8.35333 15.4478 7.7C15.7011 7.04667 16.0611 6.46667 16.5278 5.96C17.0078 5.45333 17.5878 5.06 18.2678 4.78C18.9478 4.48667 19.7145 4.34 20.5678 4.34C21.4211 4.34 22.1811 4.48667 22.8478 4.78C23.5278 5.06 24.1078 5.45333 24.5878 5.96C25.0678 6.46667 25.4278 7.04667 25.6678 7.7C25.9211 8.35333 26.0478 9.04667 26.0478 9.78C26.0478 10.5 25.9211 11.1867 25.6678 11.84C25.4278 12.4933 25.0678 13.0733 24.5878 13.58C24.1211 14.0867 23.5478 14.4867 22.8678 14.78C22.1878 15.06 21.4211 15.2 20.5678 15.2ZM17.8278 9.78C17.8278 10.3933 17.9478 10.94 18.1878 11.42C18.4278 11.8867 18.7545 12.2533 19.1678 12.52C19.5811 12.7867 20.0478 12.92 20.5678 12.92C21.0745 12.92 21.5345 12.7867 21.9478 12.52C22.3611 12.24 22.6878 11.8667 22.9278 11.4C23.1811 10.92 23.3078 10.3733 23.3078 9.76C23.3078 9.16 23.1811 8.62 22.9278 8.14C22.6878 7.66 22.3611 7.28667 21.9478 7.02C21.5345 6.75333 21.0745 6.62 20.5678 6.62C20.0478 6.62 19.5811 6.76 19.1678 7.04C18.7545 7.30667 18.4278 7.68 18.1878 8.16C17.9478 8.62667 17.8278 9.16667 17.8278 9.78ZM32.6967 15.2C31.8434 15.2 31.0767 15.06 30.3967 14.78C29.7167 14.4867 29.1367 14.0867 28.6567 13.58C28.1901 13.0733 27.8301 12.4933 27.5767 11.84C27.3234 11.1867 27.1967 10.5 27.1967 9.78C27.1967 9.04667 27.3234 8.35333 27.5767 7.7C27.8301 7.04667 28.1901 6.46667 28.6567 5.96C29.1367 5.45333 29.7167 5.06 30.3967 4.78C31.0767 4.48667 31.8434 4.34 32.6967 4.34C33.5501 4.34 34.3101 4.48667 34.9767 4.78C35.6567 5.06 36.2367 5.45333 36.7167 5.96C37.1967 6.46667 37.5567 7.04667 37.7967 7.7C38.0501 8.35333 38.1767 9.04667 38.1767 9.78C38.1767 10.5 38.0501 11.1867 37.7967 11.84C37.5567 12.4933 37.1967 13.0733 36.7167 13.58C36.2501 14.0867 35.6767 14.4867 34.9967 14.78C34.3167 15.06 33.5501 15.2 32.6967 15.2ZM29.9567 9.78C29.9567 10.3933 30.0767 10.94 30.3167 11.42C30.5567 11.8867 30.8834 12.2533 31.2967 12.52C31.7101 12.7867 32.1767 12.92 32.6967 12.92C33.2034 12.92 33.6634 12.7867 34.0767 12.52C34.4901 12.24 34.8167 11.8667 35.0567 11.4C35.3101 10.92 35.4367 10.3733 35.4367 9.76C35.4367 9.16 35.3101 8.62 35.0567 8.14C34.8167 7.66 34.4901 7.28667 34.0767 7.02C33.6634 6.75333 33.2034 6.62 32.6967 6.62C32.1767 6.62 31.7101 6.76 31.2967 7.04C30.8834 7.30667 30.5567 7.68 30.3167 8.16C30.0767 8.62667 29.9567 9.16667 29.9567 9.78ZM39.9656 0.4H42.6456V11.64C42.6456 12.12 42.7256 12.4467 42.8856 12.62C43.0456 12.78 43.2656 12.86 43.5456 12.86C43.759 12.86 43.979 12.8333 44.2056 12.78C44.4323 12.7267 44.6323 12.66 44.8056 12.58L45.1656 14.62C44.8056 14.7933 44.3856 14.9267 43.9056 15.02C43.4256 15.1133 42.9923 15.16 42.6056 15.16C41.7656 15.16 41.1123 14.94 40.6456 14.5C40.1923 14.0467 39.9656 13.4067 39.9656 12.58V0.4ZM53.4933 15L50.4333 10.48L49.0133 11.88V15H46.3333V0.4H49.0133V9.24L53.2333 4.54H56.0733L52.1733 8.98L56.3533 15H53.4933ZM57.4856 15V4.52H60.1656V15H57.4856ZM57.4856 3.06V0.4H60.1656V3.06H57.4856ZM68.8633 14.46C68.6366 14.5533 68.3633 14.66 68.0433 14.78C67.7233 14.9 67.3766 14.9933 67.0033 15.06C66.6433 15.14 66.2766 15.18 65.9033 15.18C65.4099 15.18 64.9566 15.0933 64.5433 14.92C64.1299 14.7467 63.7966 14.4733 63.5433 14.1C63.3033 13.7133 63.1833 13.2133 63.1833 12.6V6.58H61.8033V4.52H63.1833V1.12H65.8633V4.52H68.0633V6.58H65.8633V11.7C65.8766 12.06 65.9766 12.32 66.1633 12.48C66.3499 12.64 66.5833 12.72 66.8633 12.72C67.1433 12.72 67.4166 12.6733 67.6833 12.58C67.9499 12.4867 68.1633 12.4067 68.3233 12.34L68.8633 14.46Z" fill="white"/>
</svg>
